<?xml version="1.0" encoding="UTF-8"?>
<svg width="28px" height="22px" viewBox="0 0 28 22" version="1.1" xmlns="http://www.w3.org/2000/svg" xmlns:xlink="http://www.w3.org/1999/xlink">
    <!-- Generator: Sketch 53.2 (72643) - https://sketchapp.com -->
    <title>Group</title>
    <desc>Created with Sketch.</desc>
    <defs>
        <linearGradient x1="100%" y1="97.2104938%" x2="0%" y2="2.7895062%" id="linearGradient-1">
            <stop stop-color="#A445B2" offset="0%"></stop>
            <stop stop-color="#D41872" offset="51.7099809%"></stop>
            <stop stop-color="#FF0066" offset="100%"></stop>
        </linearGradient>
    </defs>
    <g id="Smart-Links-&amp;-Presave" stroke="none" stroke-width="1" fill="none" fill-rule="evenodd">
        <g id="04-09---SmartLink-Setup---Email" transform="translate(-336.000000, -944.000000)">
            <g id="Music-Services" transform="translate(306.000000, 549.000000)">
                <g id="2" transform="translate(0.000000, 369.000000)">
                    <g id="Group-2" transform="translate(30.000000, 24.000000)">
                        <g id="Group" transform="translate(0.000000, 2.000000)">
                            <path d="M13.8139343,10.0256265 L16.5850525,7.75409497 L18.440155,10.3334654 C16.3573303,11.5928442 14.9677124,13.837183 14.9677124,16.3912289 C14.9677124,16.6610809 14.9837341,16.926989 15.013855,17.1891606 L1.24884036,17.1891606 L8.03479004,7.75430254 L10.8059082,10.0256265 C11.2487488,10.3884738 11.7791748,10.5698973 12.3100281,10.5698973 C12.8404541,10.5698973 13.3713074,10.3884738 13.8139343,10.0256265 Z M12.7552185,8.80589526 C12.4847717,9.02758904 12.1350708,9.02758904 11.864624,8.80589526 L1.12109375,4.35207426e-13 L23.4987488,4.35207426e-13 L12.7552185,8.80589526 Z M-1.77635684e-15,1.168667 L6.77441406,6.72118434 L-1.77635684e-15,16.1400589 L-1.77635684e-15,1.168667 Z M19.9449158,9.64015322 L17.8454285,6.72118434 L24.6198425,1.168667 L24.6198425,9.62562275 C23.8918152,9.38981357 23.1135865,9.26173759 22.3048096,9.26173759 C21.4795837,9.26173759 20.6857605,9.39479545 19.9449158,9.64015322 Z" id="Shape" fill="#282828"></path>
                            <path d="M22.3048096,10.8573936 C25.4501953,10.8573936 28,13.3350506 28,16.3912289 C28,19.4476147 25.4501953,21.9252717 22.3048096,21.9252717 C19.1596374,21.9252717 16.6098327,19.4476147 16.6098327,16.3912289 C16.6098327,13.3350506 19.1596374,10.8573936 22.3048096,10.8573936 Z M23.2498779,18.3686217 L23.2498779,14.4138361 C23.2498779,14.0320992 22.9302979,13.7215618 22.5374451,13.7215618 L22.3122864,13.7215618 C21.9194336,13.7215618 21.5998535,14.0320992 21.5998535,14.4138361 L21.5998535,14.4866961 L21.5250854,14.4866961 C21.1322327,14.4866961 20.8126526,14.7972335 20.8126526,15.1789704 L20.8126526,15.4044006 C20.8126526,15.7861375 21.1322327,16.096675 21.5250854,16.096675 L21.5998535,16.096675 L21.5998535,18.3686217 C21.5998535,18.7503585 21.9194336,19.060896 22.3122864,19.060896 L22.5374451,19.060896 C22.9302979,19.060896 23.2498779,18.7503585 23.2498779,18.3686217 Z" id="Shape" fill="url(#linearGradient-1)"></path>
                        </g>
                    </g>
                </g>
            </g>
        </g>
    </g>
</svg>